<svg width="22" height="22" viewBox="0 0 22 22" fill="none" xmlns="http://www.w3.org/2000/svg">
    <path d="M6.71429 11L12.4286 11M16 6L12.4286 10.9935L16 16M21 3.85528C21 5.4314 19.72 6.71056 18.1429 6.71056C16.5657 6.71056 15.2857 5.4314 15.2857 3.85528C15.2857 2.27917 16.5657 1 18.1429 1C19.72 1 21 2.27917 21 3.85528ZM21 18.1317C21 19.7078 19.72 20.9869 18.1429 20.9869C16.5657 20.9869 15.2857 19.7078 15.2857 18.1317C15.2857 16.5556 16.5657 15.2764 18.1429 15.2764C19.72 15.2764 21 16.5556 21 18.1317ZM6.71429 10.9935C6.71429 12.5696 5.43429 13.8488 3.85714 13.8488C2.28 13.8488 1 12.5696 1 10.9935C1 9.41736 2.28 8.13819 3.85714 8.13819C5.43429 8.13819 6.71429 9.41736 6.71429 10.9935Z" stroke="#2D2D2D" stroke-width="1.8" stroke-linecap="square"/>
</svg>